HIERARCHY
ROOT Hips
{
  OFFSET 43.0842 91.1655 101.099
  CHANNELS 6 Xposition Yposition Zposition Zrotation Xrotation Yrotation
  JOINT LeftUpLeg
  {
    OFFSET 8.64259 1.95398 -2.38835
    CHANNELS 3 Zrotation Xrotation Yrotation
    JOINT LeftLeg
    {
      OFFSET 43.7702 0 0
      CHANNELS 3 Zrotation Xrotation Yrotation
      JOINT LeftFoot
      {
        OFFSET 40.6238 0 0
        CHANNELS 3 Zrotation Xrotation Yrotation
        JOINT LeftToeBase
        {
          OFFSET 12.7242 0 0
          CHANNELS 3 Zrotation Xrotation Yrotation
          End Site
          {
            OFFSET 0 0 0
          }
        }
      }
    }
  }
  JOINT RightUpLeg
  {
    OFFSET -8.2249 1.95398 -2.59336
    CHANNELS 3 Zrotation Xrotation Yrotation
    JOINT RightLeg
    {
      OFFSET 43.5653 0 0
      CHANNELS 3 Zrotation Xrotation Yrotation
      JOINT RightFoot
      {
        OFFSET 40.6238 0 0
        CHANNELS 3 Zrotation Xrotation Yrotation
        JOINT RightToeBase
        {
          OFFSET 12.7242 0 0
          CHANNELS 3 Zrotation Xrotation Yrotation
          End Site
          {
            OFFSET 0 0 0
          }
        }
      }
    }
  }
  JOINT Spine
  {
    OFFSET 0.165834 0.87714 6.61349
    CHANNELS 3 Zrotation Xrotation Yrotation
    JOINT Spine1
    {
      OFFSET 7.38963 1.71661e-005 0
      CHANNELS 3 Zrotation Xrotation Yrotation
      JOINT Spine2
      {
        OFFSET 11.9445 1.14441e-005 0
        CHANNELS 3 Zrotation Xrotation Yrotation
        JOINT Spine3
        {
          OFFSET 14.7254 4.19617e-005 0
          CHANNELS 3 Zrotation Xrotation Yrotation
          JOINT Spine4
          {
            OFFSET 10.9679 0 0
            CHANNELS 3 Zrotation Xrotation Yrotation
            JOINT RightShoulder
            {
              OFFSET 2.46616 -1.6653 3.69651
              CHANNELS 3 Zrotation Xrotation Yrotation
              JOINT RightArm
              {
                OFFSET 13.0012 0 0
                CHANNELS 3 Zrotation Xrotation Yrotation
                JOINT RightForeArm
                {
                  OFFSET 28.7848 1.52588e-005 0
                  CHANNELS 3 Zrotation Xrotation Yrotation
                  JOINT RightHand
                  {
                    OFFSET 26.5688 1.52588e-005 0
                    CHANNELS 3 Zrotation Xrotation Yrotation
                    End Site
                    {
                      OFFSET 0 0 0
                    }
                  }
                }
              }
            }
            JOINT LeftShoulder
            {
              OFFSET 2.38034 -1.29275 -3.7523
              CHANNELS 3 Zrotation Xrotation Yrotation
              JOINT LeftArm
              {
                OFFSET 16.3182 6.10351e-005 0
                CHANNELS 3 Zrotation Xrotation Yrotation
                JOINT LeftForeArm
                {
                  OFFSET 27.0901 0 0
                  CHANNELS 3 Zrotation Xrotation Yrotation
                  JOINT LeftHand
                  {
                    OFFSET 24.5451 1.52588e-005 0
                    CHANNELS 3 Zrotation Xrotation Yrotation
                    End Site
                    {
                      OFFSET 0 0 0
                    }
                  }
                }
              }
            }
            JOINT Neck
            {
              OFFSET 5.0226 -0.0266342 0
              CHANNELS 3 Zrotation Xrotation Yrotation
              JOINT Head
              {
                OFFSET 6.69364 2.86102e-005 0
                CHANNELS 3 Zrotation Xrotation Yrotation
                End Site
                {
                  OFFSET 0 0 0
                }
              }
            }
          }
        }
      }
    }
  }
}
MOTION
Frames:	14
Frame Time:	0.0333333
80.9234 97.9699 21.68 122.46 -41.9205 98.9837 -179.676 48.5704 128.563 -25.8213 6.49933 -1.15495 52.0437 -8.72785 -5.59732 145.878 83.2704 -17.0559 163.535 0.496874 76.6097 -34.8215 -15.7157 0.586751 57.8326 4.62503 -10.1318 33.0936 -0.160142 -6.98156 -1.19123 7.93467 -87.222 10.9969 -1.08518 5.62949 -0.685996 -0.836767 5.6716 -23.1424 -2.72484 5.04572 -3.12978 -2.72485 5.04572 95.1471 -42.964 -93.9413 -4.24298 2.55296 -2.52353 -10.1423 -1.24409 -94.0157 -46.0479 -17.391 19.6265 -88.9812 -44.3519 79.0677 27.9837 -14.879 -36.9218 -1.21506 -40.4828 -44.5416 23.7414 3.04401 6.79919 -35.5088 2.45137 14.4768 12.4453 3.78061 -9.07095 
81.8515 97.4528 19.8124 117.131 -43.6076 93.4497 -171.564 38.0362 116.112 -30.1511 4.69859 -2.49805 54.0131 -6.69011 -4.82326 25.5039 88.6196 116.629 165.17 6.27541 75.2594 -35.6167 -14.6659 0.286052 59.1193 4.66549 -11.4923 33.6753 -0.765487 -6.26396 -1.23754 7.69447 -87.5208 11.4883 -1.30363 5.07238 -0.192089 -1.07942 5.12464 -22.6681 -2.76642 4.44818 -2.65549 -2.76642 4.44818 95.2055 -45.3359 -93.4734 -0.694169 2.59558 -3.97037 -14.2892 -3.04583 -99.8972 -43.7215 -15.4153 16.7079 -88.8659 -43.4088 79.0424 16.2809 -22.1699 -47.9695 4.58961 -20.7025 -51.556 23.234 2.87279 1.53732 -32.4534 1.33661 17.1735 11.5859 2.68479 -9.15659 
83.3213 96.3683 17.5004 113.591 -47.9849 89.5846 -169.117 26.1945 105.927 -37.4293 8.41681 -2.53694 52.8879 -8.04568 -9.03394 -57.4132 76.7143 -141.169 167.478 12.92 73.7637 -39.0017 -14.3177 -0.69793 61.2143 3.80766 -12.9977 32.7117 -0.00370637 -6.71003 -1.03842 7.58155 -87.897 11.71 -1.07876 4.30436 0.0322014 -0.888448 4.34754 -22.4597 -2.32163 3.78245 -2.4471 -2.32163 3.78244 94.8029 -47.9932 -93.7219 1.20094 1.342 -9.29362 -16.0848 -1.97715 -102.475 -42.0682 -14.0202 14.4287 -88.4966 -42.6836 79.48 -2.44997 -31.9271 -60.4809 8.26962 5.53557 -62.3195 25.7245 3.25818 1.02188 -28.1032 1.04854 21.186 9.36811 2.29992 -9.38 
85.2513 95.8233 14.934 110.542 -52.8875 87.3136 -170.906 16.6142 95.191 -44.0652 5.25338 -1.57374 49.1202 -9.99154 -25.3559 -99.2126 37.5791 -98.395 168.46 17.3914 72.8393 -38.4468 -14.1334 -0.737045 62.1858 2.75681 -13.187 31.423 0.2178 -5.01309 -0.847203 7.52304 -88.4685 11.8305 -0.964452 3.15592 0.155995 -0.82469 3.19524 -22.3578 -1.86804 2.72069 -2.3451 -1.86803 2.72068 93.6136 -49.8462 -95.2887 1.33823 -1.03488 -16.7248 -15.1923 -2.85088 -101.372 -39.0654 -12.4326 13.0711 -88.5501 -42.9686 79.4549 -24.3881 -37.4837 -73.0676 11.4538 23.4286 -76.3026 25.9212 3.3495 3.01616 -25.1217 1.16385 25.9032 7.90325 2.45039 -8.77148 
87.0666 94.901 12.9408 106.5 -59.2229 86.1328 -171.405 8.48748 86.2705 -45.0402 4.17279 -3.04667 49.7765 -9.66752 -26.0706 -83.1953 32.003 -96.6143 171.254 20.4539 74.4272 -37.8129 -17.8797 -1.62061 63.1514 1.6297 -14.1739 31.0228 0.232344 -4.33534 -0.482482 7.43904 -89.2562 12.0015 -0.608111 1.55004 0.329794 -0.53932 1.57529 -22.2014 -1.04583 1.29567 -2.18874 -1.04583 1.29568 92.6033 -49.5226 -96.9135 1.73818 -2.89063 -25.5176 -16.9217 -4.26696 -98.4051 -33.5693 -10.1908 12.9706 -89.54 -44.6004 78.2332 -34.7141 -35.3751 -78.6232 14.1076 27.752 -85.7637 23.963 3.02137 3.40282 -23.1112 1.4645 29.44 6.51565 2.68942 -8.37238 
87.8951 93.3051 11.667 102.383 -61.4476 85.5687 -170.948 0.927803 82.4631 -41.5159 6.15028 -5.38298 56.5102 -4.86348 -12.9393 -47.6086 49.6246 -113.684 173.604 22.5194 77.3018 -38.4613 -17.3399 -1.95409 64.9858 -0.241541 -15.5217 30.7459 -0.276503 -2.41525 -0.58945 7.23216 -89.8363 12.4124 -1.09329 0.453493 0.741811 -1.07228 0.501173 -21.7971 -1.17904 0.103899 -1.78445 -1.17903 0.103902 91.8284 -51.0809 -97.803 1.40572 -7.35599 -34.572 -16.1861 -4.23146 -92.9141 -27.4426 -7.4481 10.2071 -91.3977 -46.4784 75.7771 -37.5988 -31.4456 -78.4406 14.9276 29.0633 -91.4501 19.7511 2.33262 1.92609 -23.6147 2.04509 27.0035 5.03404 3.51458 -6.17725 
87.7459 92.2649 10.3638 99.2906 -58.6308 86.0449 -169.792 -4.93116 83.8919 -36.6944 9.23653 -7.0119 60.5992 -0.829094 4.92173 50.4412 38.3561 -177.759 174.192 23.3965 80.0432 -38.2078 -17.2133 -1.14516 65.6226 -0.253471 -18.8107 29.8268 0.126572 -2.01638 -1.09207 7.06932 -90.2257 12.737 -2.27673 -0.180424 1.06802 -2.28247 -0.080004 -21.4811 -2.11722 -0.856628 -1.46845 -2.11721 -0.856637 91.3317 -53.1495 -98.1446 1.20902 -11.1716 -41.5878 -15.1814 -3.29447 -87.4453 -21.5112 -5.04428 6.57951 -93.6678 -48.7604 72.9313 -33.606 -24.5401 -73.8729 21.0638 26.2239 -97.2721 17.8726 2.02184 1.87996 -24.1893 2.40513 22.0072 2.92846 3.93146 -3.02185 
87.0835 91.8249 8.66832 96.9728 -52.0263 86.9142 -169.158 -6.49474 88.6 -35.4561 12.0179 -6.64554 62.043 -0.615099 18.3261 -80.5739 46.2131 -110.283 173.958 23.6758 81.9698 -36.8131 -15.1914 0.0030259 64.4889 1.24187 -21.1979 29.4419 0.737478 -3.07329 -1.52023 7.03609 -90.4197 12.7995 -3.21979 -0.455072 1.13245 -3.23671 -0.312783 -21.4297 -2.93406 -1.4025 -1.41705 -2.93406 -1.40249 91.4108 -55.3192 -97.6173 2.65561 -9.67628 -44.9318 -14.5897 -2.11889 -84.6711 -18.0434 -3.82206 4.3272 -94.9288 -49.1838 71.1682 -32.7168 -15.3371 -70.3104 24.3421 25.4171 -101.496 16.6274 1.79429 2.46933 -24.0384 1.35855 14.8091 1.56291 2.42397 -1.09213 
86.1413 91.7575 6.70645 94.6184 -43.8707 87.0036 -169.028 -6.22465 92.9874 -32.2645 11.633 -4.88312 62.8377 0.678942 18.559 -98.8337 55.7354 -103.359 172.779 23.8428 82.472 -33.9702 -12.4744 1.65524 63.6055 2.7789 -23.0959 28.5535 1.78637 -4.41039 -1.70542 7.04681 -90.4647 12.7778 -3.60916 -0.499184 1.11178 -3.6276 -0.33966 -21.4575 -3.2921 -1.56192 -1.44488 -3.29209 -1.56191 92.2502 -55.9721 -96.2905 4.76048 -4.75311 -46.8124 -13.4758 -0.945498 -82.5701 -15.7316 -3.1088 3.87123 -96.6777 -49.487 68.6783 -28.9906 -4.91842 -66.8213 25.1479 22.5242 -102.944 14.8252 1.48216 2.67913 -24.7742 -0.571019 6.66793 1.81147 -0.0466364 0.0437388 
85.2624 91.9744 4.44495 92.7241 -35.5581 87.0386 -168.981 -4.13514 96.9143 -28.2785 14.8482 -3.70556 62.269 -0.315618 16.6227 -61.9819 68.5647 -128.412 170.934 23.7018 81.8987 -30.5715 -9.77214 3.2821 63.0433 3.31196 -23.1807 26.3386 3.50624 -5.19519 -1.71427 7.04146 -90.4377 12.7892 -3.61372 -0.443788 1.12331 -3.62975 -0.284111 -21.4467 -3.3131 -1.51049 -1.43403 -3.3131 -1.51049 92.5775 -56.8921 -95.6808 4.35216 1.95727 -48.0559 -11.5643 1.34713 -79.7775 -14.1153 -2.62805 3.06574 -96.552 -48.4382 68.5193 -24.2967 5.33375 -64.4879 24.6804 19.5353 -102.476 15.4732 1.59553 2.59899 -27.3161 -2.49547 -0.964005 3.59087 -2.65648 0.251664 
84.1768 91.977 1.83271 90.6926 -27.9609 86.8152 -169.736 -0.734636 98.8611 -25.347 16.3562 -2.53231 61.0685 -1.40817 13.1638 -35.8746 71.2222 -150.546 169.929 24.7782 80.9746 -28.3136 -7.60482 4.39779 62.4268 2.7228 -18.5202 28.6379 2.11442 -5.38654 -1.31355 7.07222 -90.6816 12.7196 -2.93438 -1.01525 1.05173 -2.97624 -0.88503 -21.501 -2.49355 -1.85059 -1.48841 -2.49358 -1.8506 95.8091 -51.7989 -91.6421 6.72185 11.0281 -48.9391 -9.99138 3.45142 -76.8774 -13.0386 -2.32807 1.93281 -98.4261 -49.4493 66.0993 -17.7414 13.0943 -66.658 24.9344 17.6176 -100.446 16.1041 1.76395 1.37162 -27.4054 -6.05779 -6.62955 4.13791 -6.93638 -0.873847 
82.984 91.6844 -0.890618 89.3117 -22.4277 86.8718 -170.429 3.03732 99.3188 -25.4149 13.9087 -2.14948 62.2212 0.421339 8.37787 -23.0431 72.1632 -163.369 170.505 25.6353 80.1986 -26.6935 -11.0098 3.70378 61.2816 2.44842 -14.9466 32.4925 0.121838 -6.6826 -0.524077 7.14865 -91.0054 12.5611 -1.52017 -1.83247 0.88986 -1.59935 -1.76381 -21.6376 -0.899318 -2.20445 -1.62497 -0.899341 -2.20446 98.9582 -45.7347 -87.268 6.71986 21.5598 -46.372 -8.01149 4.89974 -75.6566 -12.1238 -2.09176 0.976308 -100.893 -50.6313 62.9557 -11.152 17.7115 -71.4049 20.7306 16.9467 -97.8401 13.9719 1.54493 -0.117983 -25.9589 -10.5867 -11.9639 3.90982 -12.0022 -2.23632 
81.9571 91.1366 -3.36407 88.9961 -19.1469 86.5477 -171.351 5.54151 97.9689 -26.5643 15.2945 -2.66339 63.7471 1.81352 10.77 -17.1247 73.4574 -171.484 171.512 26.9714 78.7496 -27.9749 -12.9554 2.27067 60.4031 1.38366 -10.176 32.3232 -0.197855 -5.42439 0.206648 7.28311 -91.1807 12.2999 -0.14917 -2.3404 0.626857 -0.252038 -2.33157 -21.8919 0.5609 -2.27711 -1.8792 0.560876 -2.27713 100.856 -39.6161 -84.3445 5.19258 29.7309 -40.7958 -5.72894 6.24339 -75.2483 -12.8965 -2.31153 0.320705 -103.043 -52.5176 60.6421 -4.25949 19.9735 -74.5219 18.0118 15.1144 -97.168 13.7095 1.53633 -0.582045 -24.2348 -14.4427 -14.5006 2.6068 -16.017 -4.8833 
81.2606 90.8736 -5.52972 89.5403 -15.9951 86.3716 -171.517 7.41231 96.5791 -28.2293 13.115 -3.3919 65.2746 3.7702 11.199 15.0998 69.0297 158.929 170.952 26.9956 76.9656 -27.8276 -9.58396 1.77379 59.376 1.00908 -6.61774 29.9966 0.396699 -3.06137 0.721733 7.44474 -91.2068 11.988 0.865897 -2.50061 0.314814 0.755029 -2.53627 -22.2077 1.57725 -2.12503 -2.19505 1.57724 -2.12505 101.832 -37.5397 -82.6491 0.0356962 34.6995 -33.7633 -4.63409 9.30011 -72.7598 -10.1082 -1.59467 -0.321321 -105.044 -54.2153 58.5619 2.24798 21.2473 -76.4388 16.9486 12.9123 -97.0641 14.6173 1.60106 0.383268 -24.0587 -17.0261 -17.188 2.09495 -18.8522 -6.65432 
